# xmcd CD database file
#
# Track frame offsets:
#	183
#	11793
#	21580
#	32820
#	43928
#	59240
#	73155
#	87580
#	100668
#	114163
#	127510
#	140300
#	154083
#	165975
#	179063
#	191753
#	206530
#	219050
#	227593
#	240713
#	253753
#	260848
#
# Disc length: 3578 seconds
#
# Revision: 0
# Processed by: cddbd v1.5.1PL0 Copyright (c) Steve Scherf et al.
# Submitted via: CDex 1.51
#
DISCID=3e0df816
DTITLE=I 1 Ragtime - Ragtime
DYEAR=1991
DGENRE=Jazz
TTITLE0=Maple Leaf Rag
TTITLE1=Buffalo Rag
TTITLE2=St. Louis Rag
TTITLE3=The Ragtime Drummer
TTITLE4=Down Home Rag
TTITLE5=Baltimore Buzz intro:In Honeysuckle Time
TTITLE6=Sound of Africa
TTITLE7=Original Rags
TTITLE8=The Entertainer
TTITLE9=Cascades
TTITLE10=Nonpareil - None to Equal
TTITLE11=The Strenuous Life
TTITLE12=Grace and Beauty - A Classy Rag
TTITLE13=Frogs Legs Rag
TTITLE14=Sunburst
TTITLE15=Pace and Plenty Rag
TTITLE16=American Beauty Rag
TTITLE17=Caprice Rag
TTITLE18=Twelfth Street Rag
TTITLE19=Whipping the Keys
TTITLE20=In the Dark
TTITLE21=Flashes
EXTD=YEAR: 1991
EXTT0=
EXTT1=
EXTT2=
EXTT3=
EXTT4=
EXTT5=
EXTT6=
EXTT7=
EXTT8=
EXTT9=
EXTT10=
EXTT11=
EXTT12=
EXTT13=
EXTT14=
EXTT15=
EXTT16=
EXTT17=
EXTT18=
EXTT19=
EXTT20=
EXTT21=
PLAYORDER=
